<?xml version="1.0" encoding="UTF-8"?>
<svg id="_图层_1" data-name="图层 1" xmlns="http://www.w3.org/2000/svg" viewBox="0 0 131.48 153.39">
  <defs>
    <style>
      .cls-1 {
        fill: #fff;
      }
    </style>
  </defs>
  <path class="cls-1" d="M114.47,0H17.01C7.61,0,0,7.61,0,17.01v119.38c0,9.39,7.61,17.01,17.01,17.01h97.46c9.39,0,17.01-7.61,17.01-17.01V17.01c0-9.39-7.61-17.01-17.01-17.01ZM124.11,25.6v90.43c-.7,1.48-1.85,3.27-3.39,3.46h-15.13s-8.93,2.12-13.43,11.22l-7.73,14.09h-37.63l-7.73-14.09c-4.5-9.1-13.43-11.22-13.43-11.22h-15.13c-1.37-.17-2.43-1.61-3.14-2.97V41.25c7.59,9.43,21.33,11.37,31.26,4.19,10.26-7.41,12.57-21.74,5.16-32-1.37-1.89-2.97-3.51-4.74-4.85h68.06c9.39,0,17.01,7.61,17.01,17.01Z"/>
</svg>