<svg width="176" height="204" viewBox="0 0 176 204" fill="none" xmlns="http://www.w3.org/2000/svg">
<path d="M153 0C165.703 0 176 10.2975 176 23V181C176 193.703 165.703 204 153 204H23C10.2975 204 8.05374e-08 193.703 0 181V23C9.02019e-07 10.2975 10.2975 0 23 0H153ZM53.1162 10C66.2327 25.3902 67.4855 46.4208 55.4531 58.4531C44.1856 69.7207 25.0282 69.3368 10 58.4717V155C10.5 156.667 12.2 160 15 160H34C38.5 160 45 162 50 170.5C54.8764 178.79 58 187.5 63 194H113C118 187.5 121.124 178.79 126 170.5C131 162 137.5 160 142 160H161C163.8 160 165.5 156.667 166 155V24C166 16.268 159.732 10 152 10H53.1162Z" fill="white"/>
</svg>
