<svg width="89" height="111" viewBox="0 0 89 111" fill="none" xmlns="http://www.w3.org/2000/svg">
<mask id="path-1-outside-1_13_93" maskUnits="userSpaceOnUse" x="-0.500854" y="-0.588257" width="89" height="112" fill="black">
<rect fill="white" x="-0.500854" y="-0.588257" width="89" height="112"/>
<path d="M43.8679 10.5831C44.0318 10.4723 44.2204 10.4723 44.3843 10.5831C52.7555 16.2456 76.1379 41.8838 77.632 63.3727C79.5466 90.9125 58.4856 99.9166 44.1261 99.9166C29.7666 99.9166 8.70663 90.9124 10.6212 63.3727C12.1153 41.8839 35.4966 16.2457 43.8679 10.5831Z"/>
</mask>
<path d="M43.8679 10.5831C44.0318 10.4723 44.2204 10.4723 44.3843 10.5831C52.7555 16.2456 76.1379 41.8838 77.632 63.3727C79.5466 90.9125 58.4856 99.9166 44.1261 99.9166C29.7666 99.9166 8.70663 90.9124 10.6212 63.3727C12.1153 41.8839 35.4966 16.2457 43.8679 10.5831Z" fill="#C52E58"/>
<path d="M77.632 63.3727L88.1067 62.6445L88.1067 62.6444L77.632 63.3727ZM44.1261 99.9166L44.126 110.417H44.1261V99.9166ZM10.6212 63.3727L0.146504 62.6444L0.146499 62.6445L10.6212 63.3727ZM44.3843 10.5831L50.2672 1.88593L44.3843 10.5831ZM43.8679 10.5831L49.7509 19.2803L43.8679 10.5831ZM44.3843 10.5831L38.5013 19.2803C41.2872 21.1647 48.3863 27.9274 55.0743 37.1898C61.8184 46.5298 66.6177 56.3416 67.1572 64.101L77.632 63.3727L88.1067 62.6444C87.1521 48.9149 79.5132 35.1631 72.0998 24.8962C64.6303 14.5516 55.8526 5.66398 50.2672 1.88593L44.3843 10.5831ZM77.632 63.3727L67.1572 64.1009C67.897 74.7421 64.3139 80.5218 60.2533 83.9113C55.7186 87.6964 49.4206 89.4166 44.1261 89.4166V99.9166V110.417C53.1911 110.417 64.6033 107.635 73.7103 100.033C83.2914 92.0354 89.2815 79.5431 88.1067 62.6445L77.632 63.3727ZM44.1261 99.9166L44.1261 89.4166C38.8317 89.4166 32.5339 87.6964 27.9996 83.9113C23.9392 80.5219 20.3561 74.7422 21.0959 64.1009L10.6212 63.3727L0.146499 62.6445C-1.02829 79.5428 4.96136 92.0351 14.5422 100.033C23.649 107.635 35.0611 110.417 44.126 110.417L44.1261 99.9166ZM10.6212 63.3727L21.0959 64.101C21.6354 56.3415 26.4346 46.5298 33.1785 37.1897C39.8663 27.9274 46.9651 21.1647 49.7509 19.2803L43.8679 10.5831L37.985 1.88598C32.3995 5.66415 23.622 14.5519 16.1528 24.8965C8.73963 35.1634 1.1011 48.9151 0.146504 62.6444L10.6212 63.3727ZM44.3843 10.5831L50.2672 1.88593C46.5496 -0.628688 41.7024 -0.628631 37.985 1.88598L43.8679 10.5831L49.7509 19.2803C48.2501 20.2955 46.3138 21 44.1262 21C41.9385 21 40.0022 20.2955 38.5013 19.2803L44.3843 10.5831Z" fill="#C52E58" mask="url(#path-1-outside-1_13_93)"/>
<mask id="path-3-outside-2_13_93" maskUnits="userSpaceOnUse" x="0.499146" y="0.411743" width="87" height="110" fill="black">
<rect fill="white" x="0.499146" y="0.411743" width="87" height="110"/>
<path d="M43.8679 10.5831C44.0318 10.4723 44.2204 10.4723 44.3843 10.5831C52.7555 16.2456 76.1379 41.8838 77.632 63.3727C79.5466 90.9125 58.4856 99.9166 44.1261 99.9166C29.7666 99.9166 8.70663 90.9124 10.6212 63.3727C12.1153 41.8839 35.4966 16.2457 43.8679 10.5831Z"/>
</mask>
<path d="M43.8679 10.5831C44.0318 10.4723 44.2204 10.4723 44.3843 10.5831C52.7555 16.2456 76.1379 41.8838 77.632 63.3727C79.5466 90.9125 58.4856 99.9166 44.1261 99.9166C29.7666 99.9166 8.70663 90.9124 10.6212 63.3727C12.1153 41.8839 35.4966 16.2457 43.8679 10.5831Z" fill="#C52E58"/>
<path d="M77.632 63.3727L87.1091 62.7138L87.1091 62.7138L77.632 63.3727ZM44.1261 99.9166L44.1261 109.417H44.1261V99.9166ZM10.6212 63.3727L1.1441 62.7137L1.14409 62.7138L10.6212 63.3727ZM44.3843 10.5831L49.7069 2.71423L44.3843 10.5831ZM43.8679 10.5831L49.1906 18.452L43.8679 10.5831ZM44.3843 10.5831L39.0616 18.452C41.9808 20.4266 49.1598 27.2905 55.885 36.6044C62.661 45.9886 67.5956 55.9879 68.1548 64.0316L77.632 63.3727L87.1091 62.7138C86.1743 49.2686 78.6706 35.7044 71.2891 25.4816C63.8568 15.1886 55.159 6.40211 49.7069 2.71423L44.3843 10.5831ZM77.632 63.3727L68.1548 64.0315C68.9153 74.9707 65.2176 81.0701 60.8941 84.679C56.1417 88.6459 49.6002 90.4166 44.1261 90.4166V99.9166V109.417C53.0115 109.417 64.1802 106.685 73.0695 99.2652C82.3877 91.4871 88.2632 79.3144 87.1091 62.7138L77.632 63.3727ZM44.1261 99.9166L44.1261 90.4166C38.6521 90.4166 32.1108 88.6458 27.3587 84.679C23.0355 81.0702 19.3378 74.9708 20.0983 64.0315L10.6212 63.3727L1.14409 62.7138C-0.00998688 79.3142 5.86506 91.4868 15.183 99.265C24.0721 106.685 35.2406 109.417 44.1261 109.417L44.1261 99.9166ZM10.6212 63.3727L20.0983 64.0316C20.6576 55.9879 25.592 45.9885 32.3677 36.6043C39.0927 27.2904 46.2715 20.4266 49.1906 18.452L43.8679 10.5831L38.5452 2.71428C33.0931 6.40227 24.3955 15.1888 16.9635 25.4819C9.58225 35.7046 2.07893 49.2687 1.1441 62.7137L10.6212 63.3727ZM44.3843 10.5831L49.7069 2.71423C46.3278 0.428547 41.9243 0.428599 38.5452 2.71428L43.8679 10.5831L49.1906 18.452C47.8406 19.3652 46.097 20 44.1262 20C42.1553 20 40.4117 19.3653 39.0616 18.452L44.3843 10.5831Z" fill="#292C49" mask="url(#path-3-outside-2_13_93)"/>
<rect x="5.49878" y="17.5002" width="78" height="20" rx="2" fill="#292C49"/>
<rect x="34.4988" y="9.50024" width="19" height="12" fill="#292C49"/>
<path d="M43.4988 29.5002H33.4988V30.5002H43.4988V34.5002H29.4988V26.5002H40.4988V23.5002H29.4988V20.5002H43.4988V29.5002Z" fill="white"/>
<path d="M51.4988 25.5002H60.4988V34.5002H48.4988V31.5002H57.4988V29.5002H48.4988V23.5002H46.4988V20.5002H51.4988V25.5002Z" fill="white"/>
</svg>
